<svg fill="none" height="15" viewBox="0 0 15 15" width="15" xmlns="http://www.w3.org/2000/svg"><g stroke="#4147d5" stroke-linecap="round" stroke-linejoin="round" stroke-width="1.5"><path d="m2.47556 12.0531c-.38816-1.6725-.56728-3.58098-.63435-4.80401-.03024-.55146.41431-.99909.96659-.99909h10c.5523 0 .9968.44763.9666.99909-.0671 1.22303-.2462 3.13151-.6344 4.80401-.1798.775-.7504 1.3652-1.5378 1.4794-.8113.1177-2.04336.2175-3.7944.2175s-2.98308-.0998-3.79441-.2175c-.78741-.1142-1.35796-.7044-1.53783-1.4794z" fill="#d7e0ff"/><path d="m4.3078 6.25v-1c0-1.933 1.567-3.5 3.5-3.5 1.933 0 3.5 1.567 3.5 3.5v1"/><path d="m5.8078 9.25v1.5m4-1.5v1.5"/></g></svg>